<svg xmlns="http://www.w3.org/2000/svg" viewBox="0 0 1024 1024" width="1024" height="1024">
<g fill="#3b7f22" fill-rule="evenodd">
<path d="M 709 597 L 704 602 L 704 656 L 741 693 L 747 695 L 750 694 L 754 689 L 753 682 L 720 650 L 721 603 L 716 597 Z"/>
<path d="M 692 545 L 666 553 L 643 567 L 623 587 L 614 600 L 612 606 L 625 618 L 635 599 L 650 583 L 664 573 L 684 564 L 705 561 L 706 580 L 711 584 L 716 583 L 719 579 L 720 561 L 733 562 L 749 567 L 775 583 L 790 599 L 800 617 L 806 635 L 807 646 L 788 647 L 784 650 L 784 656 L 788 660 L 807 661 L 806 673 L 802 686 L 791 707 L 772 727 L 748 741 L 724 747 L 718 746 L 719 728 L 714 723 L 711 723 L 706 727 L 706 746 L 694 746 L 673 739 L 657 730 L 638 712 L 626 693 L 614 702 L 613 705 L 628 726 L 639 737 L 651 746 L 670 756 L 689 762 L 707 764 L 741 761 L 753 757 L 780 742 L 798 725 L 809 710 L 818 691 L 823 672 L 824 643 L 822 631 L 815 609 L 804 590 L 789 573 L 769 558 L 756 552 L 732 545 Z"/>
<path d="M 515 528 L 507 531 L 492 544 L 490 549 L 489 573 L 466 572 L 466 532 L 463 529 L 459 530 L 445 540 L 440 546 L 438 578 L 412 585 L 390 596 L 368 612 L 347 637 L 337 657 L 332 677 L 331 699 L 335 721 L 344 742 L 356 759 L 374 776 L 393 788 L 356 788 L 337 805 L 332 812 L 607 812 L 635 785 L 496 784 L 472 782 L 449 777 L 430 771 L 399 753 L 382 736 L 372 719 L 366 700 L 366 676 L 377 648 L 383 639 L 405 619 L 438 604 L 439 697 L 443 703 L 450 701 L 466 687 L 467 599 L 490 600 L 490 697 L 495 703 L 500 701 L 515 689 L 518 683 L 518 604 L 540 611 L 568 629 L 589 652 L 600 672 L 610 670 L 624 659 L 624 652 L 615 636 L 589 609 L 575 599 L 556 589 L 518 576 L 518 533 Z"/>
<path d="M 424 470 L 425 477 L 431 482 L 665 482 L 672 476 L 671 467 L 665 463 L 431 463 L 427 465 Z"/>
<path d="M 318 470 L 319 477 L 325 482 L 387 482 L 394 475 L 392 466 L 387 463 L 326 463 L 323 464 Z"/>
<path d="M 424 376 L 424 383 L 431 389 L 665 389 L 672 383 L 672 376 L 667 371 L 432 370 Z"/>
<path d="M 318 376 L 318 383 L 325 389 L 386 389 L 389 388 L 394 382 L 393 375 L 386 370 L 326 370 Z"/>
<path d="M 424 282 L 425 290 L 432 295 L 660 295 L 667 294 L 672 289 L 671 280 L 665 276 L 431 276 Z"/>
<path d="M 318 282 L 318 288 L 324 294 L 385 295 L 390 293 L 394 287 L 393 281 L 386 276 L 326 276 L 321 278 Z"/>
<path d="M 724 188 L 703 179 L 286 179 L 270 185 L 255 198 L 248 210 L 245 220 L 245 720 L 252 739 L 265 753 L 277 760 L 288 763 L 336 762 L 328 752 L 324 743 L 290 742 L 277 736 L 271 730 L 265 714 L 265 227 L 272 210 L 280 203 L 290 199 L 700 199 L 711 204 L 720 213 L 725 228 L 725 528 L 745 531 L 745 221 L 740 206 L 732 195 Z"/>
</g></svg>